<!--Generator: Adobe Illustrator 19.0.0, SVG Export Plug-In . SVG Version: 6.00 Build 0)--><svg xmlns="http://www.w3.org/2000/svg" id="bike" viewBox="162.1 84.8 762 441"><style>.st0{opacity:.55}.st1{fill:none;stroke:#fff;stroke-width:.5;stroke-miterlimit:10}.st2{opacity:.55;enable-background:new}.st2,.st3{fill:none;stroke:#fff;stroke-miterlimit:10}.st4{fill:#fff}.st5{stroke-width:2}.st5,.st6,.st7{fill:none;stroke:#fff;stroke-miterlimit:10}.st6{opacity:.55;stroke-width:.5;enable-background:new}.st7{stroke-linecap:round;stroke-linejoin:round}.st8{fill:#224f6b}.st9{fill:none}.st10{fill:url(#XMLID_9_)}.st11{opacity:.6}.st12{fill:none;stroke:#fff;stroke-width:.75;stroke-miterlimit:10}</style><g id="XMLID_1027_" class="st0"><path id="XMLID_3_" d="M517.1 200.9c1.5-.1 3.1-.2 4.8-.2 36.2-.5 111.7-4.9 122.7 23.9 5.3 14-1.7 31.7-9.5 42.4 3.2.3 13.2.2 16.6 0" class="st1"/></g><path id="XMLID_1026_" d="M517.4 199c-.8-3.4-58.8 8.1-82.8 8.4-22.3.3-40.5-7.6-62.9-14.1-5.6-1.6-11.6-1.9-17.4-2.4-6.5-.6-13.3-.9-19.7-1.4-16.9-1.3-33.1-3-50-4.2-8.9-.7-19.6-1.5-28.5-2.2-3.3.1-9.2 2.4-11.4 2.9 20.6 2.4 116.9 14.4 125.4 30.2 9.5 17.8 16.3 30.8 46.2 35.8 29.9 4.9 66.4 17.4 89-24.3 4.1-7.5 5.6-12.7 7.8-17.4 1.2-4.5 4.5-10.5 4.3-11.3z" class="st2"/><path id="XMLID_1025_" d="M274.2 278.8s54 3.5 62.1 5.3" class="st3"/><path id="XMLID_1024_" d="M262.7 288.2l39.7 3.5" class="st3"/><path id="XMLID_1023_" d="M254.3 296l31.4 3.8" class="st3"/><path id="XMLID_1022_" d="M246 304.3l27.9 3.6" class="st3"/><path id="XMLID_1021_" d="M583.6 328.4l17.2-44.3a5.4 5.4 0 0 1 6.9-3.1l26.6 10.3a5.4 5.4 0 0 1 3.1 6.9l-20 51.4a5.4 5.4 0 0 1-6.9 3.1l-26.6-10.3c-2.3-.9-3.6-3.2-3.4-5.5" class="st3"/><path id="XMLID_1020_" d="M591.9 307.1l36.7 13.9-1.2 3.8-36.7-14.2z" class="st4"/><path id="XMLID_1019_" d="M588.8 314.5l36.7 13.9-1.6 4-36.6-14.2z" class="st4"/><path id="XMLID_1018_" d="M620.3 314.1l9.6 3.6" class="st5"/><path id="XMLID_1017_" d="M631.9 312.4l-9.6-3.7" class="st5"/><path id="XMLID_1016_" d="M609.1 340.6l9.6 3.6" class="st5"/><path id="XMLID_1015_" d="M607.2 346.2l9.5 3.7" class="st5"/><path id="XMLID_1014_" d="M580.5 337l10.7 3.9" class="st5"/><path id="XMLID_1013_" d="M620.7 339l-9.6-3.8" class="st5"/><path id="XMLID_1012_" d="M624 304.3l9.7 3.7" class="st5"/><path id="XMLID_1011_" d="M592.4 303.9l12.5 4.3" class="st5"/><path id="XMLID_1010_" d="M595.2 298.8l11.6 4.3" class="st5"/><path id="XMLID_1009_" d="M608.5 298.7l-11.7-4.4" class="st5"/><path id="XMLID_1008_" d="M593.2 332.7l2.4.7" class="st5"/><path id="XMLID_1007_" d="M597.3 329.1l-11.7-4.5" class="st5"/><path id="XMLID_1006_" d="M600.7 284.3l36.7 14" class="st5"/><path id="XMLID_1005_" d="M598.7 289.4l37.2 13.9" class="st5"/><path id="XMLID_1004_" d="M492.4 337c-4.9 8.4-10.9 23.2-7 41.3l26.6-2.9" class="st3"/><path id="XMLID_1003_" d="M519.1 364.6c-2.1-11.4-5.5-30-8.5-39.8" class="st3"/><path id="XMLID_1000_" d="M762.4 330.4c-25.3 15.8-41.8 44.1-41 76.1 1.3 47.9 41.2 85.8 89.1 84.5 47.9-1.3 85.8-41.2 84.5-89.1s-41.2-85.8-89.1-84.5c-9.8.3-19.2 2.1-27.8 5.4m2.8 5.3c7.9-2.8 16.4-4.5 25.2-4.7 44.6-1.2 81.7 34 82.9 78.6s-34 81.7-78.6 82.9-81.7-34-82.9-78.6c-.8-29.4 14.3-55.6 37.4-70.4" class="st3"/><path id="XMLID_998_" d="M699.6 420.5c8.4 52.2 54.8 91.5 109.5 90 59.6-1.6 106.7-50.8 105.1-110-1.1-39.6-23.6-73.6-56.3-91.2" class="st3"/><path id="XMLID_996_" d="M703.3 409.5c3.3 54.8 49.9 97.5 105.6 96 56.9-1.5 101.8-48.5 100.3-105-1.1-41-26.4-75.8-62.1-91.1" class="st6"/><path id="XMLID_994_" d="M705.6 404.9c1.5 54.5 48.3 98.6 103.2 97.1s98.3-46.9 96.8-101.4c-1.1-42.4-28.8-77.8-67.1-90.7" class="st6"/><path id="XMLID_993_" d="M333.2 272.2s-32.4-4.7-43.8-2.6-55.2 38-46.7 51.8c2.7 4.4 7.4 11.8 7.4 11.8" class="st3"/><path id="XMLID_992_" d="M203.6 201.9s-11-.3 7.2 28c4.1 5.1 16.4 12.9 16.4 12.9l-.4-13.3" class="st3"/><path id="XMLID_990_" d="M227.8 274.3c-3.4 8.1-7.8 17.1-13.3 25.4 0 0-18.9 27.5-33.5 35-1.2.6-2 2-1.7 3.4.2.8.8 1.4 2 1.3 2.4-.2 32.8-1 52.5-22.1 0 0 46.3-52.7 68-51.3" class="st3"/><path id="XMLID_989_" d="M227.2 242.8l9 6.3s-.2 1-.8 2.9" class="st3"/><path id="XMLID_988_" d="M455.3 375.7l23.1 2c4 .4 7.7-2.3 8.6-6.2l8.9-35.7" class="st3"/><path id="XMLID_987_" d="M415.5 292.8s12.6 19.5 19 31" class="st3"/><path id="XMLID_986_" d="M276.5 228.1c1.8 6.3-32.1-10.6-36.5-13.1-4.4-2.5-11.2-21-11.2-21s-21.4-2.8-27.1-2.9c-5.7-.2-4.7.1 8.9 22.1s87.7 62 141 59.9c8.1-.3 15.9.4 23.3 1.9 0 0 3.1-19.1 22.5-13.7 4.5 1.2 8.4 4 10.7 8 2 3.5 3.6 9.3.9 14.2l-1.7 3.1c24.7 12.6 42.4 29.6 50.4 32.3 13.1 4.3 27.8 3.9 45.3-1.2" class="st3"/><path id="XMLID_985_" d="M712.7 221.9c-4.2 15.1-18.2 44.8-53.6 41.5" class="st3"/><path id="XMLID_984_" d="M691.7 194.4c3.2 1.1 5.3 2 5.3 2.6.1 2.7 9.2 21.1 9.2 21.1" class="st3"/><path id="XMLID_983_" d="M653.5 184.4s14.3 3.2 26.5 6.5" class="st3"/><g id="XMLID_981_"><path id="XMLID_982_" d="M407.4 287s34.9 24.5 40.5 34.1c5.5 9.6 23.9 23.6 49.9 14.1 6.2-1.6 11.8-6.2 12.9-10.4 1-4.2 6.9-16.5 12.8-20.3" class="st7"/></g><path id="XMLID_980_" d="M409.1 283.6c-.2.5-.4 1-.7 1.6-1.7 3.1-1 1.4-1 1.4 24.7 12.6 42.4 29.6 50.4 32.3 13.1 4.3 27.8 3.9 45.3-1.2s59.7-51.8 59.7-51.8" class="st3"/><path id="XMLID_979_" d="M515.5 204.8s9.3-24.8 45.6-25.2c36.3-.5 111.7-5 122.7 25.7 11.1 30.7-18.6 61-37.1 62.3-17.2 1.2-27.5-6.5-73.4-2.4-8.9.8-17.9-.1-26.5-2.6-16.8-5-40.8-13.8-42.8-20.4-3-9.7 11.5-37.4 11.5-37.4z" class="st3"/><path id="XMLID_978_" d="M222.8 267s-17.6 27.1-21.3 35.2c-.6 3.3 14.3-4.5 14.3-4.5" class="st3"/><path id="XMLID_977_" d="M249 172.2l8.8 11s-9.2-.9-13.3 2.7c-2.7 2.3-5.8-4.6-7.4-8.9-.6-1.7.2-3.6 1.9-4.3 3.3-1.2 8.1-2.6 10-.5z" class="st3"/><path id="XMLID_973_" d="M242.4 313.5l21.2 3.5" class="st3"/><path id="XMLID_972_" d="M245.6 326.1l8.7 2.1" class="st3"/><path id="XMLID_971_" d="M352.5 358.1l-14.1 2.5c-1.1.1-2.1.3-3.2.5-14.6 3.2-25.3 16.4-24.9 31.8.1 2.1.3 4.1.7 6.1" class="st3"/><path id="XMLID_970_" d="M406.9 349.4l-37.5 4.9" class="st3"/><path id="XMLID_969_" d="M355.4 403.4c3.1-3.3 4.9-7.7 4.8-12.5-.3-9.7-8.3-17.3-18-17-9.7.3-17.3 8.3-17 18 .1 3.2 1.1 6.3 2.7 8.8" class="st3"/><path id="XMLID_968_" d="M244.5 185.9s3.7 9.1 7.5 13c3.9 3.9 31 24.8 23.6 30.2-3.5.7-33.5-10.3-36.9-15.2-3.4-4.9-6.3-7.6-10-20 0 0-11.2-21.4-5.2-22.5s22.1-4.3 25.5.8" class="st3"/><path id="XMLID_967_" d="M232.2 252.1l5.8-.2c6.8-.2 10.4 4.7 10.6 11.6s-5.1 12.6-11.9 12.8l-5.4-1" class="st3"/><path id="XMLID_965_" d="M700.2 145.3c-1.4-1.2-3.6-3.8-4.2-6.8-1.6-7.3-7.3-20.6-7.3-20.6s-2.1-2-4.9-4.3c3.4-18.7-24.9-19.3-24.9-19.3" class="st3"/><path id="XMLID_964_" d="M634.5 109.4l-10.5 1s-8.6 7.3 1.2 12.5l14.1-1.6-1.1 4.9 11.8 4.2s1.5.7 1.4 0c0-.7.5-4.4.5-4.4l6 .6 1 6.1 15.4.8.1 4-7.3 2.3s-.1 2.7.3 2.3c.4-.3 11.1-2.9 11.1-2.9l-.1-4.2s11.3 7 17 18.5c-2.2 4.5-4.4 9.8-3.7 12.6 1.2 5.2 9.9 19.6 13 18.8s15.6-9.5 15.6-9.5l-3.2-9.2 2.5-.5c0-.2-1-5.2-3.6-10.3-1.4-2.6-3-4.8-4.7-6.4l-4.3-12.6" class="st3"/><path id="XMLID_963_" d="M232.2 252.1s-6 12.8-.9 23.3c0 0-10-.9-8.6-13.4-.2-1.2 1.8-9.2 9.5-9.9z" class="st3"/><path id="XMLID_960_" d="M456 413.1c.9-6.1 1.4-13.2 1.2-19.6-1.7-62.2-53.8-111.3-116.4-109.6s-112 53.5-110.3 115.7 53.8 111.3 116.4 109.6c46.6-1.3 86.2-31 102.6-71.4m-38.2-.7c-13.5 21.6-37.9 36.8-65.3 37.5" class="st3"/><path id="XMLID_954_" d="M241.3 432.4c15.2 43 57.1 73.4 105.4 72.1 44.7-1.2 82.1-28.7 97.8-67.4m-72-144.7c-10-2.7-20.6-4-31.5-3.7-60 1.6-107.3 51.2-105.7 110.9l.1 3.9m193-74.8c-9.1-11.2-20.5-20.6-33.4-27.4m55.4 73.7c-2.6-13-7.6-25.1-14.4-35.9m15.4 73.3c.8-5.9 1.3-12.6 1.1-18.7-.1-1.9-.1-3.8-.3-5.6" class="st6"/><path id="XMLID_953_" d="M246.4 433.9c15.4 39.8 54.9 67.6 100.3 66.4 42.3-1.1 77.9-26.8 93.3-63.2" class="st6"/><path id="XMLID_952_" d="M371.4 296.4c-9.6-2.6-19.8-3.9-30.3-3.6-54.9 1.5-98.8 44.8-101.5 98.5" class="st6"/><path id="XMLID_951_" d="M425.1 331.3c-8.8-10.8-19.7-19.8-32.1-26.4" class="st6"/><path id="XMLID_950_" d="M446.2 375.8c-2.5-12.5-7.3-24.1-13.9-34.5" class="st6"/><path id="XMLID_949_" d="M447.2 411.8c.8-5.7 1.3-12.1 1.1-18 0-1.8-.1-3.6-.3-5.4" class="st6"/><circle id="XMLID_948_" cx="342.7" cy="391.3" r="9.2" class="st3"/><path id="XMLID_941_" d="M427.9 410.7c.5-4.3.8-9.7.7-14.2-.9-32.4-18-59.4-44.9-73.4M263.4 433.3c13.6 31.2 45.2 52.7 81.3 51.7 33-.9 61.2-20.2 74.9-47.9m-57-122.1c-7.7-2-14.1-2.5-22.5-2.3-45.1 1.2-81.1 36.8-83.7 81m8.9.8c1.2-41.3 34.6-75.6 76.4-76.7 7.5-.2 13.1.2 20 2m49.9 117c-13.5 21.8-38.1 37.4-65.6 38.1-30.5.8-57.9-16.3-71.6-41.4m107.7-105.7c24.1 12.9 39.5 37.2 40.3 66.5.1 5.1-.4 10.5-1.2 15.4" class="st3"/><path id="XMLID_937_" d="M369.3 355l-9.9 6.8-10.2 23.3-.5 3.5" class="st3"/><path id="XMLID_936_" d="M338.4 387.1l5-6.2 9.1-22.8-3.4-10.7" class="st3"/><path id="XMLID_934_" d="M369.3 355l25 17.4 40.9-49.5c1-1.2 2.7-1.3 3.9-.4l3.6 2.8c1.2 1 1.4 2.8.4 4l-43.6 52 55.7-5.6" class="st3"/><path id="XMLID_933_" d="M348.2 388.8l39.4-7.2-28.2-19.8" class="st3"/><path id="XMLID_932_" d="M535 406.5c-7.7 2.7-42.8-9.4-44.4-16.5-2.1-9.7-22.6-4.7-22.6-4.7l-125.1 12" class="st3"/><circle id="XMLID_931_" cx="394.2" cy="272.2" r="7.8" class="st3"/><path id="XMLID_930_" d="M593.2 436.8s-24 27.8-52.4 10.8C533.7 443.4 520 435 520 435" class="st3"/><path id="XMLID_929_" d="M532.6 435.5s27 24.6 51 1.3" class="st3"/><path id="XMLID_928_" d="M379.6 277.4l-5.7 11.7s6.7 7 21.2 9.5l5.7-12.6s-8.4-8.9-21.2-8.6z" class="st3"/><circle id="XMLID_927_" cx="394.2" cy="272.2" r="2.5" class="st3"/><path id="XMLID_926_" d="M532.6 435.5l-18-.7-65.2 2.9-213.1-5.1s-6.1-18.7 2.1-40.7l243.2 23.6 30.6 3.7 19.1 2.4" class="st3"/><circle id="XMLID_925_" cx="808.2" cy="404.2" r="27.7" class="st3"/><path id="XMLID_924_" d="M640.8 97.9l12.5.7s2.1-4.8 5.6-4.2 13.7 5.7 6.8 15.4c-.9.7-.7 2.8-6.9 2.9s-17.5 1.1-17.5 1.1" class="st3"/><g id="XMLID_921_"><path id="XMLID_923_" d="M658.9 94.3c-2.3-.4-3.9 1.6-4.8 3 3.7.8 13.1 5.9 6.6 15.2 4.4-.4 4.3-2.1 5.1-2.8 6.8-9.6-3.5-14.8-6.9-15.4z" class="st3"/></g><circle id="XMLID_917_" cx="480.7" cy="329.8" r="2.5" class="st3"/><path id="XMLID_916_" d="M778.4 322.4c9-3.2 18.9-5.1 29.8-5.3 4.9-.1 9.7-.9 14.3-2.5 4.5-1.6 10.3-3.3 16.9-4.4.3-.1.6-.1.9-.2 7.5-1.2 16-1.5 24.8.3 22.5 4.6 21.5.4 21.5.4s-52.7-48-125.5-19.1" class="st3"/><path id="XMLID_915_" d="M748.5 297.4c-61.6 31-72 90.3-65 129 1.6 2.6 4.6 2.3 7.6 1.1 3.4-1.4 6.3-3.8 8.3-6.8 1-1.5 1.8-3.1 2.3-4.9 5.2-16.6 22.5-62.9 60.5-85.7" class="st3"/><path id="XMLID_914_" d="M752.4 310c0 .2 5.2 11 12.4 25.8 12.6 25.8 31.2 63.9 38.6 79 1.8 3.7 6.1 5.2 9.9 3.6 3.8-1.7 5.5-6.2 3.8-10l-36.4-80.2-11.8-25.9-16.5 7.7z" class="st3"/><path id="XMLID_913_" d="M723.2 210.7c1.6-.7 3.2-.8 3.3-.4.2.8 13.4 13.9 24 15.9" class="st3"/><path id="XMLID_912_" d="M727 109.7l-7.2.2s-9.1 21.2-9 23.5-7.9 2.2-11.2 12.5c-3.2 10.3.6 21.2.6 21.2" class="st3"/><path id="XMLID_911_" d="M766.7 303.7l-43.5-93-3.5 1.6-19.6-45.2s-3.3 6.1-7.1 7.7c-.9.4-1.9.8-2.8 1.3h-.1l7.4 14.7 9.2 19.2 47.5 99.5" class="st3"/><circle id="XMLID_910_" cx="809.5" cy="409.5" r="3.2" class="st4"/><path id="XMLID_909_" d="M745 177.4c.2 2.4 0 5.2-1.2 6.8-7 9.4-23.6 5.9-11.6 22.7s40.6 35.9 46.1 35.4c2.2-.2 2.7-3.1 2.5-6.4-.3-5.8-4.5-10.4-10.1-12.2-.5-.1-.4-.4.4-1 2.7-2.3 18.5-2.9 22.6-7 4.1-4 7.2-30.1-10.3-58.2-16.3-26.1-38-55.4-51.1-53-1.6.3-3 1.4-3.9 2.8-3.5 5.7-13.9 24.2-6.5 32 4.3 4.6 11.5 13.6 16.8 22.4" class="st3"/><path id="XMLID_908_" d="M782.8 219.7c4.1-21.3-14.6-51.2-19-57.9-.4-.7 0-1.5.8-1.6 10.6-.9 24 6.8 24 6.8" class="st3"/><path id="XMLID_906_" d="M690.2 176.1c-1.8-.1-3.6-.6-5-2-4.7-4.6-8-8.5-8.9-20.8-.6-8.2-1.8-17.6-2.6-23-.4-2.7-1.9-5.1-4.2-6.6l-16.6-11 10.9-1 9.1 4.7c2.8 1.4 4.7 4.1 5.2 7.2 1.9 11.3 6.7 38.2 9.3 38.1 3.3-.1 4.2-1.9 4.1-6.6-.1-4.7-2.5-26.4-2.5-26.4l4.1-.1" class="st3"/><ellipse id="XMLID_904_" cx="641" cy="105.8" class="st3" rx="7.4" ry="7.9" transform="rotate(178.463 641.044 105.778) scale(.99996)"/><path id="XMLID_903_" d="M738.6 181.6l-4.7.2c-5.5.2-8.5-3.9-8.7-9.7s4.1-10.6 9.6-10.8l4.4.8" class="st3"/><path id="XMLID_902_" d="M738.6 181.6s4.8-10.8.6-19.5c0 0 8.2.7 7.1 11.2.2 1-1.4 7.8-7.7 8.3z" class="st3"/><path id="XMLID_7_" d="M637.5 369.9s4 11.1 7.9 10.7c3.7-.4 31.5-58.2 32.6-76 .1-1.4-.5-2.7-1.7-3.5l-4.6-3.2" class="st3"/><path id="XMLID_1_" d="M675.9 289.7c13.8 6 12.4 10.7 11.1 13.8-.7 1.7-1.3 3.5-1.9 5.3-5.3 16.2-27.2 75.5-36.4 82.3-6.2 4.5-16.2-10.8-16.2-10.8" class="st3"/><path id="XMLID_900_" d="M705.6 222.2l-16.5-33.5 1.2-.5-4-5.1-4.9-10 1-.4-3-5.7-.8.3-.2-.3-7.3 3 .2.3-1.4.6 2.9 6 1.5-.6 4.9 10 1.5 6.1 1.2-.5 17.5 35.6c6.9-3.5 6.2-5.3 6.2-5.3z" class="st3"/><path id="XMLID_899_" d="M699.4 227.4c-3.9 4-9.4 8.3-18.5 12.6" class="st3"/><path id="XMLID_898_" d="M707.2 211.2c-.1-1.2.4 4.4-2.3 9.6" class="st3"/><path id="XMLID_897_" d="M676.5 247.3c1 .1 28.8-8.1 34.5-28.6" class="st3"/><path id="XMLID_890_" d="M549.7 426.6s63.3 3 79.2.6c6.4-1 11.1-4.4 14.3-8.1 4.1-4.7 6.4-10.6 6.9-16.8l3.8-44.8c.8-9.5-2.9-17-9-24.4-2.7-3.3-5.1-4.8-9.8-7.2-11-5.4-7.4-2.6-7.4-2.6l3.7-9.6c.3-.8 12.9 5.9 13.6 6.4 3.2 2.1 6.2 4.5 8.6 7.5 2.8 3.4 4.9 7.8 6.5 11.9 2 5 2.4 10.3 2.4 15.6 0 4.3-.2 8.6-.6 12.9-2.3 27.4 2 47.3-9.4 58.6-11.5 11.2-21.7 11.9-43.9 10.7-22.2-1.2-58.5.3-58.5.3l-.4-11z" class="st9"/><path id="XMLID_889_" d="M553 426.7c13.2.6 62.2 2.5 75.9.5 6.4-1 11.1-4.4 14.3-8.1 4.1-4.7 6.4-10.6 6.9-16.8l1.2-14.3" class="st3"/><path id="XMLID_888_" d="M661.9 368c-2.3 27.4 2 47.3-9.4 58.6-11.5 11.2-21.7 11.9-43.9 10.7-22.2-1.2-58.5.3-58.5.3" class="st3"/><path id="XMLID_887_" d="M652.8 369.1l1.2-11.7c.8-9.5-2.9-17-9-24.4-2.7-3.3-5.2-4.8-9.8-7.2-7.4-3.8-7.4-2.6-7.4-2.6l3.7-9.6c.3-.8 12.9 5.9 13.6 6.4 3.2 2.1 6.2 4.5 8.6 7.5 2.8 3.4 4.9 7.8 6.5 11.9 1.3 3.3 1.9 6.7 2.2 10.2" class="st3"/><path id="XMLID_886_" d="M599.5 360.3c-5.5-4.9-12.5-7.6-19.8-7.9-18.4-.5-69.9.4-67.5 28.7 2.9 34.3 69.6 32.2 69.6 32.2s12.3.3 19.1-7.7c6.8-8 19.2-29.4-1.4-45.3.1.1.1.1 0 0z" class="st3"/><path id="XMLID_885_" d="M542.1 403.5l4.9 2.4c5.2 2.6 8.2 8.2 7.3 14-1.4 9.2-3.9 21.9-7.6 24.2-5.9 3.6-20.4-7.2-16.7-17.7 3.7-10.5 2.3-27.7 12.1-22.9z" class="st3"/><circle id="XMLID_884_" cx="342.7" cy="391.3" r="6" class="st3"/><circle id="XMLID_883_" cx="342.7" cy="391.3" r="2.7" class="st4"/><circle id="XMLID_882_" cx="438.1" cy="327.3" r="1.1" class="st3"/><circle id="XMLID_881_" cx="499.1" cy="383.2" r="2" class="st3"/><circle id="XMLID_877_" cx="630" cy="371.5" r="1.7" class="st3"/><linearGradient id="XMLID_9_" x1="502.86" x2="502.86" y1="334.97" y2="334.97" gradientTransform="rotate(-1.537 1992.945 367.558) scale(.99996)" gradientUnits="userSpaceOnUse"><stop offset="0" stop-color="#9f9c9d" stop-opacity=".25"/><stop offset="0" stop-color="#dedede" stop-opacity=".35"/><stop offset=".2" stop-color="#e0e0e0" stop-opacity=".35"/><stop offset=".73" stop-color="#d9d8d8" stop-opacity=".29"/><stop offset="1" stop-color="#bdbbbc" stop-opacity=".2"/></linearGradient><path id="XMLID_872_" d="M593.2 335.4l-1.1-.4-30.3 3.7.9-7.2 19.1-3.1c5-.7 9.8 2.2 11.4 7z" class="st3"/><g id="XMLID_870_"><path id="XMLID_6_" d="M535 406.1l-1.5-.1c1.7-23.2 7.9-44.3 12.9-58 2.5-6.9 8.9-12.9 16.3-14.6" class="st3"/><path id="XMLID_5_" d="M563.1 337.9c-6 1.6-11 5.9-13 11.5-3.8 10.4-10.2 30.8-12.3 53.3" class="st3"/></g><circle id="XMLID_869_" cx="539.9" cy="432.3" r="3.4" class="st3"/><circle id="XMLID_867_" cx="579.3" cy="382.8" r="17.5" class="st3"/><path id="XMLID_866_" d="M540.8 292.8s52.1-14.8 66-28.7" class="st3"/><path id="XMLID_865_" d="M551.1 295s46.3-14.3 59.8-30.7" class="st3"/><path id="XMLID_864_" d="M537.3 292.2l55.9 11.4-3.6 9.3-60.2-13.4z" class="st3"/><g id="XMLID_800_" class="st11"><path id="XMLID_863_" d="M852.7 336.7l-48.2 40" class="st1"/><path id="XMLID_862_" d="M819.9 324.5l4.7 57.4-20.5-57.7" class="st1"/><path id="XMLID_861_" d="M837.1 329l-29.6 47.5" class="st1"/><path id="XMLID_860_" d="M859.1 341.4l-23.3 57.4 34.2-46.7" class="st1"/><path id="XMLID_859_" d="M878.6 365.9l-54 16 60.7-2.2" class="st1"/><path id="XMLID_858_" d="M834.3 394.9l53 25.3" class="st1"/><path id="XMLID_857_" d="M889.1 404.7L832 418.4l56-28.2" class="st1"/><path id="XMLID_856_" d="M835.8 400.1l46.8 32.2" class="st1"/><path id="XMLID_855_" d="M834.8 410.6l25.8 55.1" class="st1"/><path id="XMLID_854_" d="M832 418.4l16.6 55.8" class="st1"/><path id="XMLID_852_" d="M879.3 443.9l-65.5-12.6 56.4 24.3" class="st1"/><path id="XMLID_851_" d="M828.7 421.8l-19.6 62.8" class="st1"/><path id="XMLID_847_" d="M821.5 428.5l-26.1 55.8" class="st1"/><path id="XMLID_842_" d="M788.3 423.4l35.9 60" class="st1"/><path id="XMLID_838_" d="M813.8 431.3l-55.9 36.1" class="st1"/><path id="XMLID_837_" d="M786.3 421.1l-3.7 59.7" class="st1"/><path id="XMLID_836_" d="M748 458l53.6-26.9" class="st1"/><path id="XMLID_835_" d="M780.8 408L741 449" class="st1"/><path id="XMLID_834_" d="M734.1 436.3l47.6-40" class="st1"/><path id="XMLID_833_" d="M729.6 422.6l66.7 6.5c1.2.5 41 49.8 41 49.8" class="st1"/><path id="XMLID_831_" d="M727.2 397.8l56.3-6.2" class="st1"/><path id="XMLID_830_" d="M729.9 384.4l58.8.2" class="st1"/><path id="XMLID_826_" d="M736.7 366.6l44.6 44.1-10.9 64.9" class="st1"/><path id="XMLID_810_" d="M745.2 354.8l35.3 50.1" class="st1"/><path id="XMLID_803_" d="M750.8 347.5l28.1 17.1" class="st1"/><path id="XMLID_801_" d="M793.9 324.6l-2 28.1" class="st1"/></g><g id="XMLID_769_" class="st11"><path id="XMLID_794_" d="M306.6 327.8l36.8 31.9" class="st1"/><path id="XMLID_793_" d="M334.8 318.3l.4 42.8" class="st1"/><path id="XMLID_792_" d="M322.5 320.8l2.7 44.4 23.8-46.5 4 19.5" class="st1"/><path id="XMLID_791_" d="M286.9 342.8l27.1 34.5" class="st1"/><path id="XMLID_790_" d="M277 353.9l33.4 35.6" class="st1"/><path id="XMLID_789_" d="M268.6 373.6l47.8-.2" class="st1"/><path id="XMLID_788_" d="M265 388.8l47-6.8" class="st1"/><path id="XMLID_787_" d="M290.9 434.4l-10.6 8.2" class="st1"/><path id="XMLID_786_" d="M324.7 434.8l-36.8 16.8" class="st1"/><path id="XMLID_785_" d="M328.8 436l1 37.7" class="st1"/><path id="XMLID_784_" d="M339.7 435.1l-41.6 25.2" class="st1"/><path id="XMLID_783_" d="M323 435.6l-7.7 34" class="st1"/><path id="XMLID_782_" d="M361.8 434.5l-19.5 40.6" class="st1"/><path id="XMLID_781_" d="M353.1 435.4l26.8 30.6" class="st1"/><path id="XMLID_780_" d="M366.4 435.8l-11.1 38.9" class="st1"/><path id="XMLID_779_" d="M350.7 435.4l18.3 35.5" class="st1"/><path id="XMLID_778_" d="M388.1 436.4l5 21.4" class="st1"/><path id="XMLID_774_" d="M396.1 436.2l5.4 14.2" class="st1"/><path id="XMLID_773_" d="M390.3 435.7l17.4 6.5" class="st1"/><path id="XMLID_772_" d="M389.9 332.7l-20.5 21.6" class="st1"/></g><g id="XMLID_766_"><path id="XMLID_767_" d="M744.8 177.7c.2 2.5-.2 4.8-1.4 6.4-7.1 9.4-23.6 5.7-11.8 22.6s40.4 36.2 45.8 35.8c.8-.1 1.3-.4 1.7-1-11-6.5-27.7-19.7-36.1-31.6-11.8-16.9 4.7-13.2 11.8-22.6 7.1-9.4-12.9-35.5-21.6-44.8-7.3-7.9 3.3-26.4 6.8-32 .7-1.2 1.9-2.1 3.2-2.6-3.9-2.6-7.5-3.9-10.7-3.3-1.6.3-3 1.4-3.9 2.8-3.5 5.6-14.1 24.1-6.8 32 4.4 4.7 11.8 13.8 17 22.8" class="st3"/></g><g id="XMLID_763_"><path id="XMLID_11_" d="M348.9 347.8l2.9-3.8.7-4.7 2.8-3.7.7-4.7 2.9-3.8.7-4.6 2.8-3.8.7-4.7 2.9-3.7.7-4.7 2.8-3.8.7-4.7 2.9-3.7.7-4.7" class="st3"/></g><path id="XMLID_762_" d="M373.2 294s10.6 8.7 20.4 8.5" class="st12"/><path id="XMLID_761_" d="M369.9 297.3s11 9.7 20.9 9.4" class="st12"/><path id="XMLID_760_" d="M369.3 302.6s10 9.5 20.2 9" class="st12"/><path id="XMLID_759_" d="M366.4 306.2s10.2 10 20.1 9.6" class="st12"/><path id="XMLID_758_" d="M365.5 311s6.4 9.6 19.9 9.6" class="st12"/><path id="XMLID_757_" d="M362.6 314.7s7.5 11.8 20.3 9.4" class="st12"/><path id="XMLID_756_" d="M361.7 319.5s5.5 9.7 20.2 9.6" class="st12"/><path id="XMLID_755_" d="M359.3 324.1s5.6 11.5 19.4 8.9" class="st12"/><path id="XMLID_753_" d="M358 328.7s4.6 11.7 19.6 8.7" class="st12"/><path id="XMLID_744_" d="M355.4 333.9s4.3 9.9 19 8.5" class="st12"/><path id="XMLID_742_" d="M353.3 338.2s5.3 12.1 20.5 8.5" class="st12"/><path id="XMLID_740_" d="M351.9 343.7s4.3 8.9 18.4 7.2" class="st12"/><path id="XMLID_734_" d="M349.1 347.4s5.7 10.5 20.3 7.6l.1-.7.8-3.3 3.2-3.9 1-4.9 3.2-3.9 1-4.9 3.2-3.9 1-4.9 3.2-3.9 1-4.9 3.2-3.9 1-4.9 3.2-3.9 1-4.9" class="st12"/><path id="XMLID_722_" d="M623.6 265.8l-7.3 18.5" class="st3"/><path id="XMLID_721_" d="M633.7 267l-7.4 20.7" class="st3"/><path id="XMLID_720_" d="M590.6 345.4l-3.5 8.1" class="st3"/><path id="XMLID_719_" d="M600.7 349l-3.7 8.8" class="st3"/><path id="XMLID_718_" d="M714.5 226.1s-14.2 63.2 5.6 90.3" class="st3"/><path id="XMLID_717_" d="M707.2 235.8s-17.2 58.8 8.3 84.9" class="st3"/><path id="XMLID_715_" d="M741 360s19.2 29.4 39.6 48.2" class="st3"/><path id="XMLID_714_" d="M743.8 355.4s29.2 40.6 36.7 49.5" class="st3"/><path id="XMLID_699_" d="M440 333.9l27.4 42.8" class="st3"/><path id="XMLID_2_" d="M532.6 414.5l14.5 8.1 4 12.2" class="st3"/><path id="XMLID_4_" d="M533.5 409.7l16.5 9.8 3 7.2" class="st3"/><path d="M647.8 321.8l14.7-30.5 2.1-27.7M606.4 366.6l19.1-1.3 17.8-34M651.1 342.4l-34.7 71.8s7.8.5 9.2 13.4M692.2 255.6l-35.8 75.7" class="st3"/></svg>