<!--Generator: Adobe Illustrator 19.0.0, SVG Export Plug-In . SVG Version: 6.00 Build 0)--><svg xmlns="http://www.w3.org/2000/svg" id="Layer_1" viewBox="8 79.7 551 556"><style>.st0,.st1,.st2{opacity:.32;fill:none;stroke:#cecaca;stroke-width:.75;stroke-miterlimit:10;enable-background:new}.st1,.st2{opacity:.29}.st2{opacity:.24}.circle-animation{animation:zig 3s infinite linear;transform-origin:center}@keyframes zig{0%{-moz-transform:rotate(0deg);-webkit-transform:rotate(0deg);-o-transform:rotate(0deg);-ms-transform:rotate(0deg);transform:rotate(0deg)}to{-moz-transform:rotate(360deg);-webkit-transform:rotate(360deg);-o-transform:rotate(360deg);-ms-transform:rotate(360deg);transform-origin:center}}.dash-array--7{stroke-dasharray:7;animation-duration:7s}.dash-array--2{stroke-dasharray:2;animation-duration:4s}</style><g id="XMLID_1206_"><path id="XMLID_182_" d="M424.1 149s-68.3-45.7-79.2-48.4" class="st0" data-ignore="true"/><path id="XMLID_181_" d="M321.7 95.3l9.8-14.5c.7-1.1 2.2-1.5 3.4-.8l13 7.2c1.3.7 1.7 2.3 1 3.6l-5.5 9.3" class="st0" data-ignore="true"/><path id="XMLID_180_" d="M308.6 105.5l118.3 51.4-6.6 11.1-121.9-54.3" class="st0"/><path id="XMLID_179_" d="M420.3 168l-2.2 2.6v5l-5.7 10.4-.7.2c-4 1.2-7 4.5-7.9 8.6l-1.6 7-4.1-4.4c-6.6 1.6-12.2 5.7-15.8 11.4l-1 1.6s16.4 9.2 12.9 37.6c-.2 2-.7 4-1.4 5.9l-36.9 104.2c-1.7 4.9-4.2 9.5-7.3 13.6-9.9 13.1-34.2 37.5-76.8 35.3l-247-14.4" class="st0" data-ignore="true"/><path id="XMLID_178_" d="M418.1 171.6c-.8 0-95.5-39.2-95.5-39.2" class="st0" data-ignore="true"/><circle id="XMLID_177_" cx="316" cy="133.3" r="6.7" class="st0" data-ignore="true"/><path id="XMLID_176_" d="M322.4 135l72.8 32" class="st0" data-ignore="true"/><path id="XMLID_175_" d="M402.2 201.7s23.8 23.8 7.5 69.3c-14.1 39.5-32.2 89.7-36.8 102.3-.9 2.5-2 5-3.3 7.3-7.6 13.4-34.6 53.5-86.4 53.7L8 413.3" class="st0" data-ignore="true"/><path id="XMLID_174_" d="M51.1 389.3s-17.1 2.5-13.3 15.2c3.9 12.7-17.7 20.7-17.7 20.7" class="st0" data-ignore="true"/><path id="XMLID_173_" d="M386.9 203.2s18.1 14.3 10.9 50.5c-6.6 33.3-38.7 108.9-43.8 120.8-.6 1.4-1.3 2.7-2.1 4-5.7 8.9-29.6 40-85.1 35.5L37.4 399" class="st0" data-ignore="true"/><path id="XMLID_172_" d="M392.7 199.2s23.5 24.1 15.4 54c-8.1 29.8-43.8 120.5-43.8 120.5s-18.2 51.6-75.9 51.6c-56 0-250.1-18-250.1-18" class="st0" data-ignore="true"/><ellipse id="XMLID_1094_" cx="108.1" cy="154.7" class="st0" data-ignore="true" rx="25.2" ry="39.2"/><ellipse id="XMLID_1096_" cx="104.2" cy="154.7" class="st0" data-ignore="true" rx="25.2" ry="39.2"/><path id="XMLID_1097_" d="M104.2 115.4l50.8-1.3s30.4 12.2 25 49.2c-.3 1.8-.6 3.5-1.1 5.2-1.5 6.2-4.4 22.1-19.5 30.6l-55.2-5.4" class="st0" data-ignore="true"/><path id="XMLID_1095_" d="M154.4 114.1l9.9-.2c3.2-.1 6.2 1.4 8.2 3.8.1.1.2.2.3.4 18.8 23.7 16.5 57.8-5 79.1l-.1.1c-1.2 1.2-2.9 1.9-4.6 1.9h-3.6" class="st0" data-ignore="true"/><path id="XMLID_171_" d="M182.2 135h14.2c2.3 0 4.5 1.2 5.8 3.1 3.4 5.2 8.4 16.8 1.7 34.5-1 2.7-3.6 4.4-6.5 4.4h-16" class="st0" data-ignore="true"/><path id="XMLID_1100_" d="M119.5 119.7H174" class="st0" data-ignore="true"/><path id="XMLID_1101_" d="M123.2 123.5h53.4" class="st0" data-ignore="true"/><path id="XMLID_1102_" d="M126.9 128.6h52.6" class="st0" data-ignore="true"/><path id="XMLID_1103_" d="M129.5 133.3H182" class="st0" data-ignore="true"/><path id="XMLID_1104_" d="M131.3 140h52.5" class="st0" data-ignore="true"/><path id="XMLID_1105_" d="M132.4 145.6h52.5" class="st0" data-ignore="true"/><path id="XMLID_1106_" d="M133.3 152h52.5" class="st0" data-ignore="true"/><path id="XMLID_1107_" d="M133.3 157.7h52.5" class="st0" data-ignore="true"/><path id="XMLID_1108_" d="M132.7 162.4h52.6" class="st0" data-ignore="true"/><path id="XMLID_1109_" d="M131.6 168.2h52.5" class="st0" data-ignore="true"/><path id="XMLID_1110_" d="M130.1 174h52.6" class="st0" data-ignore="true"/><path id="XMLID_1111_" d="M127.5 179.6H180" class="st0" data-ignore="true"/><path id="XMLID_1112_" d="M124.6 184.4h53.2" class="st0" data-ignore="true"/><path id="XMLID_1113_" d="M120.4 189.1h54.3" class="st0" data-ignore="true"/><path id="XMLID_1114_" d="M115.2 192.3l55.6 1.8" class="st0" data-ignore="true"/><path id="XMLID_170_" d="M195.6 135s1.7-9.1 9.2-8c7.6 1.1 21.9 34.9.8 57-2.9 2.9-8.6-6.9-8.6-6.9" class="st0" data-ignore="true"/><path id="XMLID_169_" d="M203.7 126.9h8s10.8 7.2 9.9 35.4c.1 1.9-2.3 18-11.7 25.1l-5.4-2.9" class="st0" data-ignore="true"/><path id="XMLID_709_" d="M209.6 126.7v-5.1h-6.8v-10.4h4.3l11.3-12.8h43l7.5 6.5v6.8h3.3v6.8h-2.5v7.4h3.7v6.5h2.8v2.7l9.2-.3V125l6.3-2.9 7.2-9 5.9-7.6h3.9l4.2-5.3 5.3-5.3s63.2 8.1 103.9 45.1l2 9 2.8 3.9v4.1s-83.7-49.2-114.8-55.7" class="st0" data-ignore="true"/><path id="XMLID_168_" d="M212.5 105.4l56.4-.5" class="st0" data-ignore="true"/><path id="XMLID_167_" d="M219.9 98.4v7.1" class="st0" data-ignore="true"/><path id="XMLID_166_" d="M221.6 98.4v7.1" class="st0" data-ignore="true"/><path id="XMLID_165_" d="M225.4 98.4v7.1" class="st0" data-ignore="true"/><path id="XMLID_164_" d="M228.2 98.4v7.1" class="st0" data-ignore="true"/><path id="XMLID_163_" d="M243.9 98.4v7.1" class="st0" data-ignore="true"/><path id="XMLID_162_" d="M253.4 98.4v7.1" class="st0" data-ignore="true"/><path id="XMLID_161_" d="M212.5 117.2H265v-5.1" class="st0"/><path id="XMLID_160_" d="M231.6 105.5v12" class="st0" data-ignore="true"/><path id="XMLID_159_" d="M234.8 117.2V135h3.4" class="st0"/><path id="XMLID_158_" d="M243.3 132.4c-1.4-.1-5.1 0-5.1 0v30.9" class="st0" data-ignore="true"/><path id="XMLID_157_" d="M213.4 128.6h5.1s5 2 6.9 9.2" class="st0" data-ignore="true"/><path id="XMLID_156_" d="M222.6 131.4h5.6l2.2 2.8c.3.4.5.8.5 1.3 0 1.1-.9 2-2 2h-2.1" class="st0" data-ignore="true"/><path id="XMLID_155_" d="M209.8 187.8v5.4h7.1v4.2h8.9v3.1h25.3v-4.8h10.7V190h-2.6v-8.4h4.9v-6.5h9.8v3.1h4.8v2h-3.9v4.1h3.9v2.1h-4.1v2.6h4.1v3.2h-3.8v4.1h3.8v4.1h-3.6v3.2h4.1v4.4h-3.9v3.2h3.9v3.5h-4v3.2h3.5v4.3h-4v4.1h4v4.4h-4v2.9c0 4.5-2 8.8-5.5 11.7-11.5 9.5-38.6 29.8-57.4 29.4" class="st0" data-ignore="true"/><path id="XMLID_154_" d="M212.1 274.9s-6.9.5-9.9-8.8c-2.9-9.3-6.4-14.5-11.8-16.5v-7.8h-21.5v-3.9h-21v-4.1H126v5.9s-40.9 32.9-50.9 57.2c-.8 1.9-2.6 3.1-4.6 3.1h-5.3c-1.8 0-3.5 1-4.4 2.5-2.3 3.9-6.4 6.3-10.9 6.3h-3.6c-2.4 0-4.3 1.9-4.3 4.3v32.7c0 2.6 2.1 4.7 4.7 4.7h44.6" class="st0" data-ignore="true"/><path id="XMLID_153_" d="M74 351.9s10.7 19.5 34.1 26.2v19.4" class="st0" data-ignore="true"/><circle id="XMLID_152_" cx="127.5" cy="333.5" r="8.1" class="st0" data-ignore="true"/><circle id="XMLID_151_" cx="127.5" cy="333.5" r="10.9" class="st0" data-ignore="true"/><path id="XMLID_150_" d="M113.4 324.5v16.2l14.1 10.3 14.7-9.3v-15.8l-13.8-9.9z" class="st0" data-ignore="true"/><path id="XMLID_149_" d="M120 308.8h13.4l19.4 16.6v9.8s-18 23.9-18.4 23.9h-12.3l-18.8-16.2-.8-11.6 17.5-22.5z" class="st0" data-ignore="true"/><path id="XMLID_148_" d="M264.4 277.2c-1.7-2.1-4.5-3-7.1-2.1-16.5 5.5-71 24.9-55.9 33.7 17.7 10.4 50.6 37.2 53.3 53.5 2.7 16.3 27.4 9.9 43.7 1.7 16.3-8.3 41.7-46.1 35.9-65.2-3.6-3.6-43.1-28.7-51.1-25.1-7.3 3.1-11 13.2-18.8 3.5z" class="st0" data-ignore="true"/><circle id="XMLID_147_" cx="282" cy="322.8" r="27.3" class="st0 circle-animation dash-array dash-array--7" data-ignore="true"/><circle id="XMLID_146_" cx="325.7" cy="305.9" r="3.9" class="st0" data-ignore="true"/><circle id="XMLID_145_" cx="282" cy="284.8" r="3.9" class="st0" data-ignore="true"/><circle id="XMLID_144_" cx="282" cy="284.8" r="1.8" class="st0" data-ignore="true"/><circle id="XMLID_143_" cx="253.4" cy="284.8" r="1.8" class="st0" data-ignore="true"/><circle id="XMLID_142_" cx="222.6" cy="278" r="1.8" class="st0" data-ignore="true"/><circle id="XMLID_141_" cx="236.9" cy="272.7" r="1.8" class="st0" data-ignore="true"/><circle id="XMLID_140_" cx="306.3" cy="348.7" r="1.8" class="st0" data-ignore="true"/><circle id="XMLID_139_" cx="325.7" cy="305.9" r="1.8" class="st0" data-ignore="true"/><circle id="XMLID_138_" cx="270.8" cy="360.9" r="3.9" class="st0" data-ignore="true"/><circle id="XMLID_137_" cx="270.8" cy="360.9" r="1.8" class="st0" data-ignore="true"/><circle id="XMLID_136_" cx="211.7" cy="304.1" r="3.9" class="st0" data-ignore="true"/><circle id="XMLID_135_" cx="211.7" cy="304.1" r="1.8" class="st0" data-ignore="true"/><path id="XMLID_134_" d="M202.3 266.1s-3.1 6.8 1.4 14.9c4.6 8.1 6.2 13.7 6.2 13.7" class="st0" data-ignore="true"/><path id="XMLID_133_" d="M251.1 258.9l6.2 16.2" class="st0" data-ignore="true"/><circle id="XMLID_132_" cx="270.8" cy="272.1" r="3.6" class="st0 circle-animation dash-array dash-array--2" data-ignore="true"/><circle id="XMLID_131_" cx="270.8" cy="272.1" r="7.1" class="st0 circle-animation dash-array dash-array--2" data-ignore="true"/><path id="XMLID_130_" d="M216.9 193.2v-9.4h8.1v-16.1h7l1.4-5.3c1.4-18-4.1-22.3-4.1-22.3" class="st0" data-ignore="true"/><path id="XMLID_129_" d="M225.3 176.6h38.3" class="st0" data-ignore="true"/><path id="XMLID_128_" d="M225.3 180h38.3" class="st0" data-ignore="true"/><path id="XMLID_127_" d="M238.8 180v16.7h-9.9v-9.6h2.7V180" class="st0"/><path id="XMLID_126_" d="M252.1 180.4v11.3h-6.5v5h-6.8" class="st0"/><path id="XMLID_125_" d="M238.2 151h5.7v19.2" class="st0"/><path id="XMLID_123_" d="M273.2 175.1l6.9-6.9 2.5 2 1.9-2 6.9 5.2 16.2-22.4-17.2-9.5h-5.8l-1.9-1.5v-5" class="st0"/><path id="XMLID_122_" d="M303.1 115.8l-3.7 7 6 3-5.4 8.6.4 4.9 11.2 8.5v4.9l-19.4 26.9-8.1-5.6-3.9 3.1" class="st0"/><path id="XMLID_121_" d="M313 120.2l-8.3 14.8 1.1 4.3L316 147v5l18.2 8.6" class="st0"/><path id="XMLID_120_" d="M373.5 175.1l-41.3 99.8-36.3-16 44-101.2" class="st0"/><path id="XMLID_119_" d="M316 147l28.9 13.6 25.5 9.6v3.8l-40.9 96.1-28.6-12.7 41.3-96.8" class="st0"/><path id="XMLID_118_" d="M406.9 189.1L370.4 174" class="st0" data-ignore="true"/><path id="XMLID_117_" d="M404.2 193.2l-30.7-12.8" class="st0" data-ignore="true"/><path id="XMLID_116_" d="M330.9 165.3l-19.3-9.3" class="st0" data-ignore="true"/><path id="XMLID_115_" d="M328.6 170l-19.3-9.3" class="st0" data-ignore="true"/><path id="XMLID_114_" d="M389.7 200.7l-21.1-9.2" class="st0" data-ignore="true"/><path id="XMLID_113_" d="M383.8 205l-17.8-7.4" class="st0" data-ignore="true"/><path id="XMLID_112_" d="M325.6 174.7l-19.3-9.4" class="st0" data-ignore="true"/><path id="XMLID_111_" d="M323.6 181.5l-22.7-11.1" class="st0" data-ignore="true"/><path id="XMLID_110_" d="M319.4 187.6l-22.5-11.4" class="st0" data-ignore="true"/><path id="XMLID_109_" d="M315.7 194.6l-31.6-15.7" class="st0" data-ignore="true"/><path id="XMLID_108_" d="M312.2 201.1l-31.5-15.8" class="st0" data-ignore="true"/><path id="XMLID_107_" d="M311.7 207.1l-31.6-15.7" class="st0" data-ignore="true"/><path id="XMLID_106_" d="M310.7 212.9l-31.6-15.8" class="st0" data-ignore="true"/><path id="XMLID_105_" d="M307.6 217.2l-27.5-13.7" class="st0" data-ignore="true"/><path id="XMLID_104_" d="M306.6 223.1l-27.5-13.7" class="st0" data-ignore="true"/><path id="XMLID_103_" d="M302.4 228.8L278.9 217" class="st0" data-ignore="true"/><path id="XMLID_102_" d="M301.4 235.6l-23.5-11.8" class="st0" data-ignore="true"/><path id="XMLID_101_" d="M298.8 239.8l-20.2-10.1" class="st0" data-ignore="true"/><path id="XMLID_100_" d="M349.3 252.9l-5.7-2.8" class="st0" data-ignore="true"/><path id="XMLID_99_" d="M381 211.1l-17-7.6" class="st0" data-ignore="true"/><path id="XMLID_98_" d="M383.8 218.8l-22.6-10.2" class="st0" data-ignore="true"/><path id="XMLID_97_" d="M381.7 223.8L359 213.7" class="st0" data-ignore="true"/><path id="XMLID_96_" d="M375.2 227l-18.4-8.2" class="st0" data-ignore="true"/><path id="XMLID_95_" d="M373.2 232.1l-18.4-8.3" class="st0" data-ignore="true"/><path id="XMLID_94_" d="M368.6 235.6L353 228" class="st0" data-ignore="true"/><path id="XMLID_93_" d="M364 238.6l-12.7-6.1" class="st0" data-ignore="true"/><path id="XMLID_92_" d="M362.6 242.6l-12.7-6.2" class="st0" data-ignore="true"/><path id="XMLID_91_" d="M357.7 245.4l-9.6-4.8" class="st0" data-ignore="true"/><path id="XMLID_90_" d="M354.3 249.1l-8.8-4.3" class="st0" data-ignore="true"/><path id="XMLID_89_" d="M401.7 198.5l-30.8-12.7" class="st0" data-ignore="true"/><path id="XMLID_88_" d="M387 216.3l-7.8 13.1-3.6-2.3-2.1 2.2 2.1 1-2.1 2.9-3.1-1.6-1.8 2.4 2.3 1-1.8 2.9-3.1-.5-1.5 5.2H360l-1.6 4.9-2.9-.6-1.7 4.1-3-.4-1.3 5.1-3.2-.4-6.8 15.7s3.4 10.9-5.2 17.6l-12.4-5.7 3-8-22.4-9-6.5 7.1-10-4.7 4.5-9.7 47.4-102.2" class="st0" data-ignore="true"/><path id="XMLID_87_" d="M303.2 275.5l-1.3-2.3 1.3-2.3h2.6l1.3 2.3-1.3 2.3z" class="st0" data-ignore="true"/><path id="XMLID_86_" d="M314.4 280.2l-1.3-2.2 1.3-2.3h2.6l1.3 2.3-1.3 2.2z" class="st0" data-ignore="true"/><path id="XMLID_85_" d="M269.6 245.4l16.3 8.5-5.2 11.1 5.7 2.4" class="st0" data-ignore="true"/><path id="XMLID_84_" d="M336.4 286.6h20.3v17.5h-20.3v19.4h2.1V357s-17.9 23.9-14.8 37.3" class="st0" data-ignore="true"/><path id="XMLID_83_" d="M330.4 370h-44.5v37.1" class="st0" data-ignore="true"/><path id="XMLID_82_" d="M296.7 370v-2.7h29v2.7" class="st0" data-ignore="true"/><path id="XMLID_81_" d="M325.7 367.3c-.1-1 0-4.1 0-4.1H303v4.1" class="st0" data-ignore="true"/><path id="XMLID_80_" d="M310.1 363.2v-4.7h7.4V350h4.3v8.2h1.6v2.7h1.4v-2.8h4.7v12.4" class="st0" data-ignore="true"/><path id="XMLID_79_" d="M207.8 312.8s6.7 29.5 3.9 38.2c-2.8 8.7 27.7-.7 43.7 13.7" class="st0" data-ignore="true"/><path id="XMLID_78_" d="M205.6 284.4l15.5-5.6" class="st0" data-ignore="true"/><path id="XMLID_77_" d="M238.7 272.1l15.5-5.6" class="st0" data-ignore="true"/><path id="XMLID_76_" d="M231.6 356.1v48.5" class="st0" data-ignore="true"/><path id="XMLID_75_" d="M216.6 356.1v48.5" class="st0" data-ignore="true"/><circle id="XMLID_74_" cx="127.5" cy="333.5" r="32.1" class="st0" data-ignore="true"/><circle id="XMLID_73_" cx="127.5" cy="333.5" r="36.2" class="st0" data-ignore="true"/><circle id="XMLID_72_" cx="127.5" cy="333.5" r="40.1" class="st0" data-ignore="true"/><path id="XMLID_71_" d="M255 150.4v21.2h12.4" class="st0" data-ignore="true"/><ellipse id="XMLID_70_" cx="274.8" cy="153.5" class="st0" data-ignore="true" rx="7.4" ry="11.8"/><ellipse id="XMLID_69_" cx="274.8" cy="153.5" class="st0" data-ignore="true" rx="2.9" ry="4.6"/><path id="XMLID_68_" d="M249.2 118.7v24.5h7.6v-5.4l6.8 6.5 12.6-9.3" class="st0" data-ignore="true"/><path id="XMLID_67_" d="M287.9 145.8s3.1 14.1-3.4 22.5" class="st0" data-ignore="true"/><path id="XMLID_66_" d="M212.5 356.1H197l6.7 13.6-15.6 24.6" class="st0" data-ignore="true"/><path id="XMLID_65_" d="M149.9 385.4h38.2v8.9h-38.2z" class="st0" data-ignore="true"/><path id="XMLID_64_" d="M188.1 394.3h14.8v8.7" class="st0" data-ignore="true"/><circle id="XMLID_63_" cx="167.6" cy="373.6" r="2.4" class="st0" data-ignore="true"/><circle id="XMLID_62_" cx="167.6" cy="373.6" r="6.2" class="st0" data-ignore="true"/><circle id="XMLID_61_" cx="129.5" cy="391.7" r="2.4" class="st0" data-ignore="true"/><circle id="XMLID_60_" cx="129.5" cy="391.7" r="6.2" class="st0" data-ignore="true"/><circle id="XMLID_59_" cx="116.6" cy="382.2" r="2.4" class="st0" data-ignore="true"/><circle id="XMLID_58_" cx="116.6" cy="382.2" r="6.2" class="st0" data-ignore="true"/><circle id="XMLID_57_" cx="183.8" cy="312.8" r="2.4" class="st0" data-ignore="true"/><circle id="XMLID_56_" cx="183.8" cy="312.8" r="6.2" class="st0" data-ignore="true"/><circle id="XMLID_55_" cx="130.1" cy="265" r="7.7" class="st0" data-ignore="true"/><circle id="XMLID_54_" cx="130.1" cy="265" r="10.3" class="st0" data-ignore="true"/><circle id="XMLID_53_" cx="167.6" cy="267" r="22.9" class="st0" data-ignore="true"/><path id="XMLID_52_" d="M211.7 334.9h-17.4V350h17.4" class="st0" data-ignore="true"/><path id="XMLID_51_" d="M117.5 246.9l-8.1 14.2 4 6.3-4 1.9 1.9 3.9-5.5 1.3v4.7l-8 7.4 3.3 5.5-3.3 2.5 4.7 6.8" class="st0" data-ignore="true"/><path id="XMLID_50_" d="M117.5 278c.5-3 0-23.2 0-23.2l5.7-5.7h12.4l6.6 3.9v25l-4.5 5.1h-15.2l-5-5.1z" class="st0" data-ignore="true"/><circle id="XMLID_49_" cx="70.1" cy="325.4" r="12.6" class="st0" data-ignore="true"/><path id="XMLID_48_" d="M43.3 325.4h10.8" class="st0" data-ignore="true"/><path id="XMLID_47_" d="M82.8 325.4h2.8" class="st0" data-ignore="true"/><path id="XMLID_46_" d="M140.3 295.5h67.5" class="st0" data-ignore="true"/><path id="XMLID_45_" d="M147.5 298.4h57" class="st0" data-ignore="true"/><path id="XMLID_44_" d="M177.6 246.9v6l-6-1.4-4.1 8.3 7.1 2.8v12.5l-13.3-4.2s-3.5 7.6-3.5 8.3c0 .7 3.5 3.8 3.5 3.8l-1.1 5.7" class="st0" data-ignore="true"/><path id="XMLID_43_" d="M166.7 341.6l15.2 6.3c1.1.4 1.7 1.6 1.4 2.8-.3 1.3-1.7 2-3 1.6l-15.2-5" class="st0" data-ignore="true"/><path id="XMLID_42_" d="M159.8 309.7l12.9-8.3c1-.7 2.4-.4 3 .7.7 1.1.3 2.5-.8 3.1l-2.3 1.2c-1.4.7-2.1 2.4-1.6 4 .5 1.5 2 2.3 3.5 2.1l1.6-.2s-2.8 5.4 5.4 9.1l-1 4.1-12.7 6.6" class="st0" data-ignore="true"/><path id="XMLID_41_" d="M134.8 388.4l9.8-8 2.9 1.8-11.8 9.5" class="st0" data-ignore="true"/><path id="XMLID_40_" d="M190.5 284.4h9.8v4.3h-9.8z" class="st0" data-ignore="true"/><path id="XMLID_39_" d="M193.2 288.8v6.5" class="st0" data-ignore="true"/><path id="XMLID_38_" d="M197.6 288.8v6.5" class="st0" data-ignore="true"/><path id="XMLID_37_" d="M127.5 374.7V386" class="st0" data-ignore="true"/><path id="XMLID_36_" d="M117.7 388.4v9.6" class="st0" data-ignore="true"/><path id="XMLID_35_" d="M114.5 388.4v9.5" class="st0" data-ignore="true"/><path id="XMLID_34_" d="M160.8 355.8c.4 1.6 4.7 11.9 4.7 11.9" class="st0" data-ignore="true"/><path id="XMLID_33_" d="M158.4 359c.4 1.6 4.7 10.7 4.7 10.7" class="st0" data-ignore="true"/></g><g id="linedraw"><path id="XMLID_32_" d="M428.2 156.9H552" class="st1"/><path id="XMLID_31_" d="M420.3 171.6h123.8" class="st1"/><path id="XMLID_30_" d="M357.5 286.1h156.7" class="st1"/><path id="XMLID_29_" d="M357.7 304.1h143.8" class="st1"/><path id="XMLID_28_" d="M402.6 203.2h123.8" class="st1"/><path id="XMLID_27_" d="M151.6 201.7h123.7" class="st2"/><path id="XMLID_26_" d="M286.2 434.3h228" class="st1"/><path id="XMLID_24_" d="M488.4 287.2v16.9" class="st1"/><path id="XMLID_23_" d="M211.7 204.9v65.2" class="st2"/><path id="XMLID_22_" d="M456.4 207.3v224.4" class="st1"/><path id="XMLID_21_" d="M462.1 425.2l-5.7 6.5-6.1-6.5" class="st1"/><path id="XMLID_20_" d="M450.5 213.4l5.9-6.3 5.9 6.6" class="st1"/><path id="XMLID_19_" d="M407.9 478.7l-206.7-1.4" class="st1"/><path id="XMLID_18_" d="M207.2 483.1l-6-5.8 6-6" class="st1"/><path id="XMLID_17_" d="M402.3 472.8l5.9 5.9-6.2 5.9" class="st1"/><path id="XMLID_16_" d="M205.8 210.4l5.8-6.4 6 6.6" class="st2"/><path id="XMLID_15_" d="M217.6 264.1l-5.9 6.3-5.9-6.6" class="st2"/><path id="XMLID_14_" d="M409.8 441.4v189.7" class="st1"/><path id="XMLID_1_" d="M200.3 440.9v189.8" class="st1"/></g></svg>