<!--Generator: Adobe Illustrator 19.0.0, SVG Export Plug-In . SVG Version: 6.00 Build 0)--><svg xmlns="http://www.w3.org/2000/svg" id="Layer_1" viewBox="-13 -1.7 429.3 563.7"><style>.st0,.st1,.st2{opacity:.32;fill:none;stroke:#fff;stroke-width:.75;stroke-miterlimit:10;enable-background:new}.st1,.st2{opacity:.29}.st2{opacity:.24}.circle-animation{animation:spin 3s infinite linear;transform-origin:center}@keyframes spin{0%{-moz-transform:rotate(0deg);-webkit-transform:rotate(0deg);-o-transform:rotate(0deg);-ms-transform:rotate(0deg);transform:rotate(0deg)}to{-moz-transform:rotate(360deg);-webkit-transform:rotate(360deg);-o-transform:rotate(360deg);-ms-transform:rotate(360deg);transform-origin:center}}@keyframes shaft{0%,to{-moz-transform:rotate(-3deg);-webkit-transform:rotate(-10deg);-o-transform:rotate(-10deg);-ms-transform:rotate(-10deg);transform:rotate(-10deg)}50%{-moz-transform:rotate(3deg);-webkit-transform:rotate(10deg);-o-transform:rotate(10deg);-ms-transform:rotate(10deg);transform-origin:bottom center}}.shaft-anim{animation:shaft 2s ease infinite}.dashed-array{animation-duration:9s}.dashed-array--1{stroke-dasharray:1}.dashed-array--2{stroke-dasharray:2}.dashed-array--3{stroke-dasharray:3}.animation-wrapper{position:relative;height:40px;width:40px}</style><path id="XMLID_1084_" d="M315.9 183.2s-53.7-35.9-62.2-38" class="st0" data-ignore="true"/><path id="XMLID_1085_" d="M235.4 141.1l7.7-11.4c.5-.9 1.7-1.2 2.7-.6l10.2 5.7c1 .5 1.3 1.8.8 2.8l-4.3 7.3" class="st0" data-ignore="true"/><path id="XMLID_1082_" d="M225.1 149.1l93 40.4-5.2 8.7-95.9-42.6" class="st0" data-ignore="true"/><path id="XMLID_1089_" d="M312.9 198.2l-1.7 2v3.9l-4.5 8.2-.5.2c-3.1.9-5.5 3.5-6.2 6.8l-1.3 5.5-3.2-3.5c-5.2 1.3-9.6 4.5-12.4 9l-.8 1.3s12.9 7.2 10.1 29.5c-.2 1.6-.5 3.1-1.1 4.6l-29 81.9c-1.3 3.8-3.3 7.5-5.7 10.7-7.8 10.3-26.9 29.5-60.3 27.7l-194-11.3" class="st0" data-ignore="true"/><path id="XMLID_1088_" d="M311.1 201c-.6 0-75-30.8-75-30.8" class="st0" data-ignore="true"/><circle id="XMLID_1087_" cx="230.9" cy="171" r="5.3" class="st0" data-ignore="true"/><path id="XMLID_1091_" d="M0 0" class="st0"/><path id="XMLID_1086_" d="M22.8 372.1s-13.4 2-10.4 11.9c3.1 10-13.9 16.3-13.9 16.3" class="st0"/><path id="XMLID_1093_" d="M286.6 225.9s14.2 11.2 8.6 39.7c-5.2 26.2-30.4 85.5-34.4 94.9-.5 1.1-1 2.1-1.6 3.1-4.5 7-23.3 31.4-66.8 27.9L12 379.7" class="st0"/><path id="XMLID_1092_" d="M291.2 222.7s18.5 18.9 12.1 42.4-34.5 94.6-34.5 94.6-14.3 40.5-59.6 40.5c-44 0-196.5-14.1-196.5-14.1" class="st0"/><path id="XMLID_1116_" d="M142.7 165.9h6.3s8.5 5.7 7.8 27.8c.1 1.5-1.8 14.1-9.2 19.7l-4.3-2.2" class="st0"/><path id="XMLID_667_" d="M147.4 165.8v-4H142v-8.2h3.4l8.9-10.1h33.8l5.9 5.1v5.3h2.6v5.3h-2v5.8h2.9v5.1h2.2v2.1l7.2-.2v-7.6l4.9-2.3 5.7-7.1 4.6-6h3.1l3.3-4.2 4.2-4.2s49.6 6.4 81.6 35.4l1.6 7.1 2.2 3.1v3.2s-65.7-38.6-90.2-43.8" class="st0" data-ignore="true"/><path id="XMLID_1031_" d="M149.6 149l44.3-.3" class="st0" data-ignore="true"/><path id="XMLID_1032_" d="M155.4 143.5v5.6" class="st0" data-ignore="true"/><path id="XMLID_1033_" d="M156.8 143.5v5.6" class="st0" data-ignore="true"/><path id="XMLID_1034_" d="M159.8 143.5v5.6" class="st0" data-ignore="true"/><path id="XMLID_1035_" d="M161.9 143.5v5.6" class="st0" data-ignore="true"/><path id="XMLID_1036_" d="M174.3 143.5v5.6" class="st0" data-ignore="true"/><path id="XMLID_1037_" d="M181.8 143.5v5.6" class="st0" data-ignore="true"/><path id="XMLID_1030_" d="M149.6 158.3h41.3v-4" class="st0" data-ignore="true"/><path id="XMLID_1039_" d="M164.6 149.1v9.4" class="st0" data-ignore="true"/><path id="XMLID_1038_" d="M167.2 158.3v14h2.6" class="st0" data-ignore="true"/><path id="XMLID_1040_" d="M173.8 170.3c-1.1-.1-4 0-4 0v24.3" class="st0" data-ignore="true"/><path id="XMLID_1041_" d="M150.3 167.3h4s3.9 1.6 5.4 7.2" class="st0" data-ignore="true"/><path id="XMLID_1043_" d="M157.5 169.5h4.4l1.7 2.2c.2.3.4.6.4 1 0 .9-.7 1.6-1.6 1.6h-1.6" class="st0" data-ignore="true"/><path id="XMLID_1044_" d="M147.5 213.8v4.2h5.6v3.3h7v2.4H180V220h8.4v-4.5h-2v-6.6h3.8v-5.1h7.7v2.4h3.8v1.6h-3.1v3.2h3.1v1.6h-3.2v2h3.2v2.5h-3v3.2h3v3.2h-2.8v2.5h3.2v3.5H199v2.5h3.1v2.7H199v2.5h2.7v3.4h-3.1v3.2h3.1v3.5h-3.1v2.3c0 3.5-1.6 6.9-4.3 9.2-9 7.5-30.3 23.4-45.1 23.1" class="st0" data-ignore="true"/><path id="XMLID_1046_" d="M149.3 282.2s-5.4.4-7.8-6.9c-2.3-7.3-5-11.4-9.3-13v-6.1h-16.9v-3.1H98.9v-3.2H81.7v4.6s-32.1 25.8-40 44.9c-.6 1.5-2 2.4-3.6 2.4h-4.2c-1.4 0-2.7.8-3.5 2-1.8 3.1-5 4.9-8.6 4.9H19c-1.9 0-3.4 1.5-3.4 3.4v25.7c0 2 1.6 3.7 3.7 3.7h35.1" class="st0" data-ignore="true"/><path id="XMLID_1047_" d="M40.8 342.7s8.4 15.3 26.8 20.6v15.2" class="st0" data-ignore="true"/><g class="animation-wrapper"><circle id="XMLID_1045_" cx="82.9" cy="328.2" r="6.4" class="st0 circle-animation"/><circle id="XMLID_1048_" cx="82.9" cy="328.2" r="8.6" class="st0 circle-animation" data-ignore="true"/><path id="XMLID_1049_" d="M71.7 321.2v12.7l11.2 8.1 11.5-7.3v-12.4l-10.8-7.8z" class="st0 circle-animation"/><path id="XMLID_1050_" d="M77 308.8h10.5l15.2 13v7.7s-14.1 18.8-14.5 18.8c-.3-.1-9.7 0-9.7 0l-14.8-12.6-.5-9.1L77 308.8z" class="st0 circle-animation" data-ignore="true"/></g><path id="XMLID_1051_" d="M190.3 283.9c-1.3-1.6-3.5-2.4-5.6-1.6-13 4.3-55.8 19.6-43.9 26.5 13.9 8.2 39.7 29.2 41.9 42 2.2 12.8 21.5 7.8 34.3 1.3 12.8-6.5 32.8-36.2 28.2-51.2-2.8-2.8-33.9-22.5-40.1-19.7-5.7 2.5-8.6 10.4-14.8 2.7z" class="st0" data-ignore="true"/><circle id="XMLID_1052_" cx="204.2" cy="319.8" r="21.4" class="st0" data-ignore="true"/><circle id="XMLID_1053_" cx="238.6" cy="306.5" r="3.1" class="st0" data-ignore="true"/><circle id="XMLID_1055_" cx="204.2" cy="290" r="3.1" class="st0" data-ignore="true"/><circle id="XMLID_1054_" cx="204.2" cy="290" r="1.4" class="st0" data-ignore="true"/><circle id="XMLID_1163_" cx="181.8" cy="290" r="1.4" class="st0" data-ignore="true"/><circle id="XMLID_1168_" cx="157.5" cy="284.6" r="1.4" class="st0" data-ignore="true"/><circle id="XMLID_1169_" cx="168.7" cy="280.5" r="1.4" class="st0" data-ignore="true"/><circle id="XMLID_1164_" cx="223.3" cy="340.1" r="1.4" class="st0" data-ignore="true"/><circle id="XMLID_1057_" cx="238.6" cy="306.5" r="1.4" class="st0" data-ignore="true"/><circle id="XMLID_1059_" cx="195.4" cy="349.7" r="3.1" class="st0" data-ignore="true"/><circle id="XMLID_1058_" cx="195.4" cy="349.7" r="1.4" class="st0" data-ignore="true"/><circle id="XMLID_1061_" cx="149" cy="305.1" r="3.1" class="st0" data-ignore="true"/><circle id="XMLID_1060_" cx="149" cy="305.1" r="1.4" class="st0" data-ignore="true"/><path id="XMLID_1056_" d="M141.6 275.3s-2.4 5.3 1.1 11.7c3.5 6.4 4.9 10.8 4.9 10.8" class="st0" data-ignore="true"/><path id="XMLID_1063_" d="M179.9 269.6l4.9 12.7" class="st0" data-ignore="true"/><circle id="XMLID_1062_" cx="195.4" cy="280" r="2.8" class="st0" data-ignore="true"/><circle id="XMLID_1064_" cx="195.4" cy="280" r="5.6" class="st0" data-ignore="true"/><path id="XMLID_1065_" d="M153.1 218v-7.4h6.4v-12.7h5.5l1.1-4.2c1.1-14.1-3.2-17.5-3.2-17.5" class="st0" data-ignore="true"/><path id="XMLID_1066_" d="M159.6 205h30.2" class="st0" data-ignore="true"/><path id="XMLID_1067_" d="M159.7 207.6h30.1" class="st0" data-ignore="true"/><path id="XMLID_1083_" d="M170.3 207.6v13.2h-7.8v-7.6h2.1v-5.6" class="st0" data-ignore="true"/><path id="XMLID_1042_" d="M180.7 208v8.8h-5.1v4h-5.3" class="st0" data-ignore="true"/><path id="XMLID_1099_" d="M169.8 184.9h4.5v15" class="st0" data-ignore="true"/><path id="XMLID_1119_" d="M197.3 203.8l5.4-5.4 2 1.5 1.5-1.5 5.4 4.1 12.7-17.6-13.5-7.5h-4.5l-1.5-1.2v-3.9" class="st0" data-ignore="true"/><path id="XMLID_1120_" d="M220.8 157.2l-2.9 5.5 4.6 2.4-4.1 6.7.3 3.9 8.8 6.7v3.8l-15.3 21.1-6.3-4.4-3.1 2.5" class="st0" data-ignore="true"/><path id="XMLID_1121_" d="M228.6 160.7l-6.5 11.6.8 3.4 8 6v4l14.3 6.7" class="st0" data-ignore="true"/><path id="XMLID_1124_" d="M276.1 203.8l-32.4 78.4-28.5-12.6 34.5-79.6" class="st0" data-ignore="true"/><path id="XMLID_1125_" d="M230.9 181.7l22.7 10.7 20 7.5v3l-32.1 75.5-22.4-10 32.3-76" class="st0" data-ignore="true"/><path id="XMLID_1123_" d="M302.3 214.8l-28.7-11.9" class="st0" data-ignore="true"/><path id="XMLID_1126_" d="M300.2 218l-24.1-10" class="st0" data-ignore="true"/><path id="XMLID_1128_" d="M242.6 196.1l-15.1-7.3" class="st0" data-ignore="true"/><path id="XMLID_1129_" d="M240.8 199.8l-15.1-7.3" class="st0" data-ignore="true"/><path id="XMLID_1132_" d="M288.8 223.9l-16.5-7.2" class="st0" data-ignore="true"/><path id="XMLID_1133_" d="M284.2 227.3l-14-5.8" class="st0" data-ignore="true"/><path id="XMLID_1130_" d="M238.5 203.5l-15.2-7.4" class="st0" data-ignore="true"/><path id="XMLID_1131_" d="M236.8 208.8l-17.7-8.7" class="st0" data-ignore="true"/><path id="XMLID_1134_" d="M233.6 213.6l-17.7-8.9" class="st0" data-ignore="true"/><path id="XMLID_1139_" d="M230.6 219.1l-24.7-12.3" class="st0" data-ignore="true"/><path id="XMLID_1140_" d="M228 224.1l-24.8-12.3" class="st0" data-ignore="true"/><path id="XMLID_1142_" d="M227.6 228.9l-24.9-12.3" class="st0" data-ignore="true"/><path id="XMLID_1144_" d="M226.7 233.5L202 221.1" class="st0" data-ignore="true"/><path id="XMLID_1146_" d="M224.3 236.9l-21.6-10.8" class="st0" data-ignore="true"/><path id="XMLID_1151_" d="M223.5 241.5L202 230.7" class="st0" data-ignore="true"/><path id="XMLID_1152_" d="M220.3 245.9l-18.6-9.2" class="st0" data-ignore="true"/><path id="XMLID_1154_" d="M219.5 251.3l-18.5-9.2" class="st0" data-ignore="true"/><path id="XMLID_1155_" d="M217.4 254.6l-15.8-7.9" class="st0" data-ignore="true"/><path id="XMLID_1153_" d="M257.1 264.9l-4.5-2.2" class="st0" data-ignore="true"/><path id="XMLID_1135_" d="M282 232.1l-13.3-6" class="st0" data-ignore="true"/><path id="XMLID_1136_" d="M284.2 238l-17.7-7.9" class="st0" data-ignore="true"/><path id="XMLID_1137_" d="M282.6 242.1l-17.9-8" class="st0" data-ignore="true"/><path id="XMLID_1138_" d="M277.4 244.6L263 238" class="st0" data-ignore="true"/><path id="XMLID_1143_" d="M275.9 248.6l-14.5-6.5" class="st0" data-ignore="true"/><path id="XMLID_1145_" d="M272.3 251.3l-12.4-5.9" class="st0" data-ignore="true"/><path id="XMLID_1147_" d="M268.7 253.7l-10-4.8" class="st0" data-ignore="true"/><path id="XMLID_1149_" d="M263.6 259l-7.5-3.8" class="st0" data-ignore="true"/><path id="XMLID_1150_" d="M261 261.9l-6.9-3.4" class="st0" data-ignore="true"/><path id="XMLID_1127_" d="M298.3 222.2l-24.2-10" class="st0" data-ignore="true"/><path id="XMLID_1141_" d="M286.7 236.2l-6.1 10.3-2.8-1.8-1.6 1.7 1.6.8-1.6 2.3-2.4-1.3-1.4 1.9 1.8.8-1.4 2.3-2.4-.4-1.2 4.1h-3.5l-1.3 3.8-2.3-.5-1.3 3.2-2.4-.3-1 4-2.6-.4-5.3 12.3s2.7 8.6-4.1 13.8l-9.7-4.5 2.4-6.3-17.6-7.1-5.1 5.6-7.9-3.7 3.5-7.6 37.2-80.3" class="st0" data-ignore="true"/><path id="XMLID_1118_" d="M220.9 282.6l-1-1.7 1-1.8h2l1.1 1.8-1.1 1.7z" class="st0"/><path id="XMLID_1156_" d="M229.6 286.4l-1-1.8 1-1.8h2.1l1 1.8-1 1.8z" class="st0"/><path id="XMLID_1157_" d="M194.5 259l12.8 6.7-4.1 8.7 4.5 1.9" class="st0" data-ignore="true"/><path id="XMLID_1158_" d="M247 291.4h15.9v13.7H247v15.2h1.6v26.3s-14.1 18.8-11.6 29.3" class="st0" data-ignore="true"/><path id="XMLID_1122_" d="M242.3 356.9h-35V386" class="st0" data-ignore="true"/><path id="XMLID_1160_" d="M215.7 356.9v-2.1h22.9v2.1" class="st0" data-ignore="true"/><path id="XMLID_1161_" d="M238.6 354.8c-.1-.8 0-3.2 0-3.2h-17.8v3.2" class="st0" data-ignore="true"/><path id="XMLID_1159_" d="M226.2 351.6v-3.7h5.9v-6.7h3.4v6.4h1.3v2.1h1.1v-2.2h3.6v9.8" class="st0" data-ignore="true"/><path id="XMLID_1162_" d="M145.9 312s5.3 23.2 3.1 30c-2.3 6.8 21.8-.5 34.3 10.8" class="st0" data-ignore="true"/><path id="XMLID_1166_" d="M144.1 289.7l12.2-4.4" class="st0" data-ignore="true"/><path id="XMLID_1167_" d="M170.1 280l12.2-4.4" class="st0" data-ignore="true"/><path id="XMLID_1170_" d="M164.6 346v38.1" class="st0" data-ignore="true"/><path id="XMLID_1171_" d="M152.9 346v38.1" class="st0" data-ignore="true"/><circle id="XMLID_1165_" cx="82.9" cy="328.2" r="25.2" class="st0" data-ignore="true"/><circle id="XMLID_1172_" cx="82.9" cy="328.2" r="28.4" class="st0" data-ignore="true"/><circle id="XMLID_1173_" cx="82.9" cy="328.2" r="31.5" class="st0" data-ignore="true"/><path id="XMLID_1174_" d="M182.9 184.4V201h9.9" class="st0" data-ignore="true"/><ellipse id="XMLID_1175_" cx="198.6" cy="186.8" class="st0" rx="5.8" ry="9.3"/><ellipse id="XMLID_1176_" cx="198.6" cy="186.8" class="st0" rx="2.3" ry="3.6"/><path id="XMLID_1178_" d="M178.5 159.4v19.3h5.9v-4.2l5.4 5 9.9-7.2" class="st0" data-ignore="true"/><path id="XMLID_1179_" d="M208.9 180.8s2.4 11.1-2.7 17.7" class="st0" data-ignore="true"/><path id="XMLID_1180_" d="M149.6 346h-12.1l5.2 10.7-12.2 19.3" class="st0" data-ignore="true"/><path id="XMLID_1177_" d="M100.5 369h30v7h-30z" class="st0"/><path id="XMLID_1181_" d="M130.5 376h11.6v6.8" class="st0" data-ignore="true"/><circle id="XMLID_1182_" cx="114.3" cy="359.6" r="1.9" class="st0" data-ignore="true"/><circle id="XMLID_1183_" cx="114.3" cy="359.6" r="4.9" class="st0" data-ignore="true"/><!--<circle data-ignore="true" id="XMLID_1202_" class="st0" cx="84.4" cy="373.9" r="1.9"/>--><!--<circle data-ignore="true" id="XMLID_1201_" class="st0" cx="84.4" cy="373.9" r="4.9"/>--><circle id="XMLID_1204_" cx="74.3" cy="366.5" r="1.9" class="st0" data-ignore="true"/><circle id="XMLID_1203_" cx="74.3" cy="366.5" r="4.9" class="st0" data-ignore="true"/><g class="animation-wrapper"><circle id="XMLID_1186_" cx="127.1" cy="312" r="1.9" class="st0 circle-animation dashed-array dashed-array--2" data-ignore="true"/><circle id="XMLID_1185_" cx="127.1" cy="312" r="4.9" class="st0 circle-animation dashed-array dashed-array--1" data-ignore="true"/></g><g class="animation-wrapper"><circle id="XMLID_1188_" cx="84.9" cy="274.4" r="6" class="st0 circle-animation dashed-array dashed-array--2" data-ignore="true"/><circle id="XMLID_1187_" cx="84.9" cy="274.4" r="8.1" class="st0 circle-animation dashed-array dashed-array--3" data-ignore="true"/></g><circle id="XMLID_1189_" cx="114.3" cy="276" r="18" class="st0" data-ignore="true"/><path id="XMLID_1190_" d="M149 329.2h-13.7v12H149" class="st0" data-ignore="true"/><path id="XMLID_1184_" d="M74.9 260.2l-6.3 11.2 3.1 4.9-3.1 1.5 1.5 3.1-4.4 1v3.7l-6.2 5.8 2.6 4.3-2.6 2 3.7 5.3" class="st0" data-ignore="true"/><path id="XMLID_1191_" d="M74.9 284.6c.4-2.4 0-18.2 0-18.2l4.5-4.5h9.8l5.2 3.1v19.6l-3.5 4h-12l-4-4z" class="st0" data-ignore="true"/><circle id="XMLID_1192_" cx="37.8" cy="321.9" r="9.9" class="st0"/><path id="XMLID_1194_" d="M16.7 321.9h8.5" class="st0"/><path id="XMLID_1195_" d="M47.8 321.9H50" class="st0" data-ignore="true"/><path id="XMLID_1196_" d="M92.8 298.4h53.1" class="st0" data-ignore="true"/><path id="XMLID_1197_" d="M98.6 300.7h44.8" class="st0" data-ignore="true"/><path id="XMLID_1198_" d="M122.2 260.2v4.7l-4.7-1.1-3.2 6.5 5.6 2.2v9.8l-10.4-3.2s-2.7 6-2.7 6.5 2.7 3 2.7 3l-.9 4.5" class="st0" data-ignore="true"/><g class="animation-wrapper"><path id="XMLID_1199_" d="M113.7 334.6l11.9 4.9c.9.3 1.3 1.3 1.1 2.2-.2 1-1.3 1.6-2.4 1.3l-11.9-3.8" class="st0 shaft-anim" data-ignore="true"/></g><path id="XMLID_1200_" d="M108.2 309.5l10.1-6.5c.8-.5 1.9-.3 2.4.5.5.9.2 2-.6 2.4l-1.8.9c-1.1.5-1.6 1.9-1.3 3.1.4 1.2 1.6 1.8 2.7 1.6l1.3-.2s-2.2 4.2 4.2 7.1l-.8 3.2-10 5.2" class="st0" data-ignore="true"/><g class="shaft-anim animation-wrapper"><circle id="XMLID_1202_" cx="84.4" cy="373.9" r="1.9" class="st0" data-ignore="true"/><path id="XMLID_1205_" d="M88.6 371.4l7.7-6.4 2.3 1.5-9.3 7.4" class="st0" data-ignore="true"/><circle id="XMLID_1201_" cx="84.4" cy="373.9" r="4.9" class="st0" data-ignore="true"/></g><path id="XMLID_1193_" d="M132.4 289.7h7.7v3.4h-7.7z" class="st0 trans-left-right"/><path id="XMLID_1207_" d="M134.4 293.1v5.1" class="st0" data-ignore="true"/><path id="XMLID_1208_" d="M137.9 293.1v5.1" class="st0" data-ignore="true"/><path id="XMLID_1209_" d="M82.9 360.6v8.9" class="st0" data-ignore="true"/><path id="XMLID_1210_" d="M75.2 371.4v7.5" class="st0" data-ignore="true"/><path id="XMLID_1211_" d="M72.6 371.4v7.4" class="st0" data-ignore="true"/><path id="XMLID_1212_" d="M109 345.7c.3 1.3 3.7 9.3 3.7 9.3" class="st0" data-ignore="true"/><path id="XMLID_1213_" d="M107.1 348.3c.3 1.3 3.7 8.4 3.7 8.4" class="st0" data-ignore="true"/><path id="XMLID_1215_" d="M319.1 189.5h97.2" class="st1" data-ignore="true"/><path id="XMLID_1216_" d="M312.9 201H410" class="st1" data-ignore="true"/><path id="XMLID_1229_" d="M263.5 291h123.1" class="st1" data-ignore="true"/><path id="XMLID_1228_" d="M263.6 305.1h113.1" class="st1" data-ignore="true"/><path id="XMLID_1219_" d="M299 225.9h97.2" class="st1" data-ignore="true"/><path id="XMLID_1223_" d="M55.7 224.7H199" class="st2" data-ignore="true"/><path id="XMLID_1220_" d="M207.5 407.4h179.1" class="st1" data-ignore="true"/><path id="XMLID_1230_" d="M366.4 291.9v13.2" class="st1" data-ignore="true"/><path id="XMLID_1221_" d="M341.2 229.1v176.3" class="st1" data-ignore="true"/><path id="XMLID_1217_" d="M345.7 400.3l-4.5 5.1-4.8-5.1" class="st1" data-ignore="true"/><path id="XMLID_1224_" d="M336.6 233.9l4.6-5 4.7 5.2" class="st1" data-ignore="true"/><path id="XMLID_1421_" d="M298.7 437.6l4.6 4.7-4.8 4.6" class="st1" data-ignore="true"/><path id="XMLID_1417_" d="M304.6 413v149" class="st1" data-ignore="true"/><path id="XMLID_1418_" d="M140.1 412.6v149" class="st1" data-ignore="true"/><g id="linedraw"><path id="XMLID_3_" d="M74.4 201.5l-2.6 2.8-2.8-2.9" class="st2"/><path id="XMLID_4_" d="M69 177.2l2.7-2.9 2.7 3" class="st2"/><path id="XMLID_5_" d="M71.7 174.7v29.5" class="st2"/><path id="XMLID_6_" d="M105.5 220.8l-2.7 1.5-2.6-1.5" class="st2"/><path id="XMLID_7_" d="M100.2 208.7l2.6-1.4 2.7 1.4" class="st2"/><path id="XMLID_8_" d="M102.8 207.5v14.8" class="st2"/><path id="XMLID_9_" d="M37.3 21.6v275.1" class="st1"/><path id="XMLID_10_" d="M201.9 21.9V171" class="st1"/><path id="XMLID_11_" d="M196-.5l4.5 4.6-4.7 4.6" class="st1"/><path id="XMLID_12_" d="M42.7 7.6L38 3l4.7-4.7" class="st1"/><path id="XMLID_13_" d="M200.4 4.1L38 3" class="st1"/><path id="XMLID_1098_" d="M55.1 172.3H137c1.8 0 3.5.9 4.6 2.4 2.7 4.1 6.6 13.2 1.3 27.1-.8 2.1-2.8 3.5-5.1 3.5H54.4" class="st0"/><path id="XMLID_1115_" d="M136.3 172.3s1.3-7.1 7.2-6.3c5.9.9 17.2 27.4.6 44.8-2.3 2.3-6.8-5.4-6.8-5.4" class="st0"/><path id="XMLID_1148_" d="M267.6 256.8l-10-4.9" class="st0"/><path id="XMLID_1225_" d="M149 227.1v51.3" class="st2"/><path id="XMLID_1226_" d="M144.4 231.4l4.5-4.9 4.7 5.2" class="st2"/><path id="XMLID_1227_" d="M153.6 273.7l-4.6 5-4.6-5.2" class="st2"/><path id="XMLID_1422_" d="M145.4 445.7l-4.6-4.5 4.7-4.7" class="st1"/><path id="XMLID_1423_" d="M303.1 442.3l-162.3-1.1" class="st1"/></g></svg>