<!--Generator: Adobe Illustrator 19.0.0, SVG Export Plug-In . SVG Version: 6.00 Build 0)--><svg xmlns="http://www.w3.org/2000/svg" id="Layer_1" width="258.6" height="512" viewBox="77.7 141 258.6 512"><style>.st0{fill:#385c8e}</style><path d="M85.9 413.7H142v231.1c0 4.6 3.7 8.3 8.3 8.3h95.2c4.6 0 8.3-3.7 8.3-8.3v-230h64.5c4.2 0 7.7-3.1 8.2-7.3l9.8-85.1c.3-2.3-.5-4.7-2-6.4-1.6-1.8-3.8-2.8-6.2-2.8h-74.3v-53.3c0-16.1 8.7-24.2 25.7-24.2h48.6c4.6 0 8.3-3.7 8.3-8.3v-78.1c0-4.6-3.7-8.3-8.3-8.3h-67c-.5 0-1.5-.1-3.1-.1-11.6 0-52 2.3-83.9 31.6-35.3 32.5-30.4 71.5-29.3 78.2v62.4H85.9c-4.6 0-8.3 3.7-8.3 8.3v84c.1 4.6 3.8 8.3 8.3 8.3z" class="st0"/></svg>