<!--Generator: Adobe Illustrator 19.0.0, SVG Export Plug-In . SVG Version: 6.00 Build 0)--><svg xmlns="http://www.w3.org/2000/svg" id="Layer_1" width="512" height="512" viewBox="-49 141 512 512"><style>.st0{fill:#fbbb00}.st1{fill:#518ef8}.st2{fill:#28b446}.st3{fill:#f14336}</style><path d="M64.5 450.4l-17.8 66.5-65.1 1.4C-38 482.2-49 440.9-49 397c0-42.5 10.3-82.5 28.6-117.7l58 10.6L63 347.5c-5.3 15.5-8.2 32.1-8.2 49.5 0 18.8 3.4 36.8 9.7 53.4z" class="st0"/><path d="M458.5 349.2c2.9 15.5 4.5 31.5 4.5 47.8 0 18.3-1.9 36.2-5.6 53.5-12.5 58.7-45 109.9-90.1 146.2l-73-3.7-10.3-64.5c29.9-17.6 53.3-45 65.6-77.9h-137V349.2h245.9z" class="st1"/><path d="M367.3 596.6C323.4 631.9 267.7 653 207 653c-97.5 0-182.3-54.5-225.5-134.7l83-67.9c21.6 57.7 77.3 98.8 142.5 98.8 28 0 54.3-7.6 76.9-20.8l83.4 68.2z" class="st2"/><path d="M370.4 199.9l-82.9 67.9c-23.3-14.6-50.9-23-80.5-23-66.7 0-123.4 43-144 102.7l-83.4-68.3C22.2 197.1 108.1 141 207 141c62.1 0 119.1 22.1 163.4 58.9z" class="st3"/></svg>