<!--Generator: Adobe Illustrator 19.0.0, SVG Export Plug-In . SVG Version: 6.00 Build 0)--><svg xmlns="http://www.w3.org/2000/svg" id="Layer_1" width="74.8" height="8.8" viewBox="-10.5 37.6 74.8 8.8"><style>.st0{fill:#ec1c24}.st1{fill:#0054a5}</style><path d="M-6.5 46.2V43c0-.8-.4-1.5-1.2-1.5S-9 42.2-9 43v3.2h-1.5v-6h1.4l.1.7c.3-.6 1-.8 1.6-.8.7 0 1.4.3 1.8 1.1.5-.9 1.2-1.1 2-1.1 1.7 0 2.6 1.1 2.6 2.9v3.3h-1.6v-3.4c0-.8-.3-1.5-1.1-1.5S-5 42.2-5 43v3.2h-1.5zM6.5 43.2c0 1.7-1.2 3.1-3.1 3.1S.3 44.9.3 43.2c0-1.7 1.2-3.1 3.1-3.1 1.8-.1 3.1 1.4 3.1 3.1zm-4.8 0c0 .9.6 1.8 1.6 1.8s1.6-.9 1.6-1.8-.6-1.8-1.6-1.8c-1.1 0-1.6.9-1.6 1.8zM9 37.6v3.3c.4-.6 1.3-1 2-1 1.8 0 3.1 1.1 3.1 3.2 0 2-1.3 3.2-3.1 3.2-.7 0-1.5-.2-1.9-1l-.1.8H7.6v-8.5H9zm.1 5.6c0 1.1.8 1.8 1.8 1.8s1.7-.7 1.7-1.8-.8-1.8-1.7-1.8c-1 0-1.8.7-1.8 1.8zM16.8 38.5c0 1.2-1.8 1.2-1.8 0s1.8-1.2 1.8 0zm-1.7 1.6v6.1h1.5v-6.1h-1.5zM19.4 37.6v4.9l2-2.4h1.8v.1L20.7 43l2.8 3.1v.1h-1.8l-2.4-2.7v2.7h-1.5v-8.6h1.6zM25.5 43.7c.1.7.7 1.3 1.8 1.3.6 0 1.3-.2 1.6-.6l1 .9c-.6.7-1.7 1-2.6 1-2.1 0-3.3-1.3-3.3-3.2 0-1.8 1.2-3.2 3.2-3.2s3.3 1.2 3 3.7l-4.7.1zm3.3-1.2c-.1-.8-.7-1.2-1.6-1.2-.8 0-1.5.4-1.7 1.2h3.3z" class="st0"/><g><path d="M32.9 37.6v3.3c.4-.6 1.3-1 2-1 1.8 0 3.1 1.1 3.1 3.2 0 2-1.3 3.2-3.1 3.2-.7 0-1.5-.2-1.9-1l-.1.8h-1.4v-8.5h1.4zm.1 5.6c0 1.1.8 1.8 1.8 1.8s1.7-.7 1.7-1.8-.8-1.8-1.7-1.8c-1 0-1.8.7-1.8 1.8zM43.8 40.2h1.4v6h-1.4l-.1-.9c-.3.7-1.3 1.1-2 1.1-1.8 0-3.1-1.1-3.1-3.2S40 40 41.7 40c.8 0 1.6.4 1.9 1l.2-.8zm-3.6 3c0 1.1.8 1.8 1.8 1.8 2.3 0 2.3-3.7 0-3.7-1 .1-1.8.7-1.8 1.9z" class="st1"/></g><g><path d="M51.1 40.2v.7l-2.8 3.9h2.8v1.5H46v-.7l2.9-4.1h-2.7v-1.3h4.9zM56.8 40.2h1.4v6h-1.4l-.1-.9c-.3.7-1.3 1.1-2 1.1-1.8 0-3.1-1.1-3.1-3.2S53 40 54.7 40c.8 0 1.6.4 1.9 1l.2-.8zm-3.6 3c0 1.1.8 1.8 1.8 1.8 2.3 0 2.3-3.7 0-3.7-1 .1-1.8.7-1.8 1.9zM60.9 40.2l.1.7c.5-.7 1.1-.9 1.7-.9s1.2.2 1.6.6l-.7 1.3c-.3-.3-.6-.4-1.1-.4-.8 0-1.5.4-1.5 1.5v3.2h-1.5v-6h1.4z" class="st1"/></g></svg>