<!--Generator: Adobe Illustrator 21.0.2, SVG Export Plug-In . SVG Version: 6.00 Build 0)--><svg xmlns="http://www.w3.org/2000/svg" id="Capa_1" width="54" height="61.7" viewBox="0 0 54 61.7"><style>.st0{fill:#d9d9d9}</style><path d="M40.9 23.1h-8.2L27 31.6l-5.8-8.5H13l9.8 14.6-11 16.3h15.8v-5.5H24l3-4.5 6.7 10h8.5l-11-16.2 9.7-14.7zM50.6 12L42 3.4C40.1 1.5 36.4 0 33.8 0h-29C2.2 0 0 2.2 0 4.8v52.1c0 2.7 2.2 4.8 4.8 4.8h44.4c2.7 0 4.8-2.2 4.8-4.8V20.2c0-2.6-1.5-6.3-3.4-8.2zm-2.7 2.7c.2.2.4.4.6.7h-9.9V5.6c.3.2.5.4.7.6l8.6 8.5zm2.2 42.2c0 .5-.4 1-1 1H4.8c-.5 0-1-.4-1-1V4.8c0-.5.4-1 1-1h28.9c.3 0 .6 0 1 .1v15.3H50c.1.3.1.7.1 1v36.7z" class="st0"/></svg>