<!--Generator: Adobe Illustrator 21.0.2, SVG Export Plug-In . SVG Version: 6.00 Build 0)--><svg xmlns="http://www.w3.org/2000/svg" id="Capa_1" width="52" height="42.1" viewBox="0 0 52 42.1"><style>.st0{fill:#d9d9d9}</style><path d="M5.2 0h10.7v3.9H5.2zM25.4 23.6a6.7 6.7 0 1 1-13.4 0 6.7 6.7 0 0 1 13.4 0z" class="st0"/><path d="M48.3 5.1H3.7C1.7 5.1 0 6.7 0 8.8v29.7c0 2.1 1.7 3.7 3.7 3.7h44.6c2 0 3.7-1.7 3.7-3.7V8.8c0-2.1-1.7-3.7-3.7-3.7zm-6.5 3h4.5c1.3 0 2.4 1.1 2.4 2.4 0 1.3-1.1 2.4-2.4 2.4h-4.5c-1.3 0-2.4-1.1-2.4-2.4 0-1.3 1.1-2.4 2.4-2.4zm-23 29.6c-7.8 0-14.1-6.3-14.1-14.1S11 9.5 18.8 9.5s14.1 6.3 14.1 14.1-6.3 14.1-14.1 14.1zm30.4-2.6H44v5.3h-4.6v-5.3h-5.3v-4.6h5.3v-5.2H44v5.2h5.2v4.6z" class="st0"/></svg>